# xmcd
#
# Track frame offsets: 
#        150
#        13887
#        32642
#        46402
#        61902
#        78040
#        94980
#        110100
#        126142
#        148242
#        162022
#        183012
#        200785
#        214002
#        230332
#
# Disc length: 3322 seconds
#
# Revision: 3
# Processed by: cddbd v1.5.2PL0 Copyright (c) Steve Scherf et al.
# Submitted via: ExactAudioCopy v0.99pb5
#
DISCID=ce0cf80f
DTITLE=Tim McGraw - Greatest Hits
DYEAR=2000
DGENRE=Country
TTITLE0=Indian Outlaw
TTITLE1=Don't Take the Girl
TTITLE2=She Never Lets It Go to Her Heart
TTITLE3=I Like It, I Love It
TTITLE4=Just to See You Smile
TTITLE5=It's Your Love (with Faith Hill)
TTITLE6=Where the Green Grass Grows
TTITLE7=For a Little While
TTITLE8=Please Remember Me
TTITLE9=Something Like That
TTITLE10=My Best Friend
TTITLE11=Maybe We Should Just Sleep On It
TTITLE12=Down on the Farm
TTITLE13=My Next Thirty Years
TTITLE14=Let's Make Love (with Faith Hill)
EXTD=
EXTT0=
EXTT1=
EXTT2=
EXTT3=
EXTT4=
EXTT5=
EXTT6=
EXTT7=
EXTT8=
EXTT9=
EXTT10=
EXTT11=
EXTT12=
EXTT13=
EXTT14=
PLAYORDER=
